<?xml version="1.0" encoding="UTF-8"?>
<svg version="1.1" xmlns="http://www.w3.org/2000/svg" width="460" height="460">
<path d="M0 0 C0.6776944 0.00254791 1.35538879 0.00509583 2.05361938 0.00772095 C6.64017294 0.02783771 11.22619453 0.07203316 15.8125 0.125 C16.74320313 0.13225098 17.67390625 0.13950195 18.6328125 0.14697266 C40.91773908 0.4112031 62.85258512 5.82266929 84.29272461 11.48632812 C86.73281079 12.10480167 89.17814531 12.64680903 91.640625 13.16796875 C97.36774818 14.41718837 102.49204103 16.69542625 107.8125 19.125 C108.45203613 19.41681152 109.09157227 19.70862305 109.75048828 20.00927734 C117.76678677 23.71251099 125.00350658 27.50007326 131.69921875 33.36328125 C133.82022116 35.22657366 133.82022116 35.22657366 136.515625 36.7265625 C139.13445852 38.32102236 139.51517307 39.44385768 140.8125 42.125 C142.66221696 43.17521103 142.66221696 43.17521103 144.8125 44.125 C149.48715563 47.15720906 152.06135335 51.20604699 155.12109375 55.74609375 C156.81002978 58.27155757 156.81002978 58.27155757 159.375 60.625 C162.27875369 63.60320891 164.12413055 66.77359025 166.1953125 70.36328125 C168.43435639 74.18696248 170.86725734 77.87741153 173.296875 81.58203125 C179.19671019 91.48098152 177.11427953 103.26279281 174.8125 114.125 C173.14422599 118.9692118 171.0703572 123.52978358 168.8125 128.125 C168.24273437 129.29417969 167.67296875 130.46335938 167.0859375 131.66796875 C165.68493195 134.49985912 164.26233411 137.31787438 162.8125 140.125 C162.1525 140.125 161.4925 140.125 160.8125 140.125 C160.503125 141.115 160.503125 141.115 160.1875 142.125 C158.96997595 144.7814161 157.77395183 146.59485626 156 148.875 C153.79655339 151.70800278 151.98401196 154.51216822 150.3125 157.6875 C148.32376039 161.42119823 146.00323377 164.36112357 143.171875 167.484375 C141.24232915 169.81313723 140.02245338 172.36899507 138.8125 175.125 C138.1525 175.125 137.4925 175.125 136.8125 175.125 C136.4721875 175.8984375 136.4721875 175.8984375 136.125 176.6875 C134.8125 179.125 134.8125 179.125 132.5625 182.1875 C129.73416043 186.06398894 127.53573684 190.20296272 125.28515625 194.43359375 C124.02325297 196.73983078 122.68925052 198.92777429 121.25 201.125 C115.32593731 210.52949687 112.4933161 220.33540502 110.125 231.125 C109.82850176 232.42731776 109.53097928 233.72940276 109.23242188 235.03125 C107.75296305 241.57411511 106.39247348 248.11155531 105.31665039 254.73339844 C103.83953967 261.7405542 100.50674741 268.05587926 96.8125 274.125 C96.1525 274.125 95.4925 274.125 94.8125 274.125 C94.8125 274.785 94.8125 275.445 94.8125 276.125 C93.4925 275.795 92.1725 275.465 90.8125 275.125 C90.82410156 275.77726562 90.83570313 276.42953125 90.84765625 277.1015625 C90.89720994 281.9011914 90.80663751 286.40284685 89.8125 291.125 C83.94144937 289.97631618 80.03098375 287.42077952 75.2421875 283.87890625 C71.07296944 280.86929385 67.14718593 278.85834142 62.3046875 277.140625 C59.72628932 276.08986712 57.28079448 274.85456779 54.81274414 273.56860352 C48.26907028 270.1623679 42.00780483 267.77887456 34.8125 266.125 C33.59949219 265.79757812 32.38648438 265.47015625 31.13671875 265.1328125 C7.09442615 258.64813045 -17.72259429 258.07088488 -41.49609375 266.23828125 C-43.86371252 267.01832401 -46.04761528 267.48536878 -48.5 267.875 C-53.84946955 268.9528044 -58.48668376 271.66014707 -63.28833008 274.15332031 C-68.1555291 276.66698956 -72.90614199 278.61604057 -78.1875 280.125 C-79.14369733 276.12704108 -79.2914592 272.41696078 -79.25 268.3125 C-79.24097656 267.15105469 -79.23195312 265.98960937 -79.22265625 264.79296875 C-79.21105469 263.91253906 -79.19945312 263.03210938 -79.1875 262.125 C-79.7753125 261.86976563 -80.363125 261.61453125 -80.96875 261.3515625 C-87.56680026 257.7040488 -91.17819724 250.74546608 -94.1875 244.125 C-95.22407134 242.05993449 -96.26606713 239.99758591 -97.3125 237.9375 C-100.37198484 231.88986546 -102.51145535 226.15936808 -104.0625 219.5625 C-106.9336274 207.54804017 -106.9336274 207.54804017 -111.73046875 196.22265625 C-113.33505198 192.81130369 -113.88117211 189.91092311 -114.4375 186.1875 C-115.64508962 178.90507592 -117.58850259 171.92868655 -119.75 164.875 C-120.05518555 163.87476807 -120.36037109 162.87453613 -120.67480469 161.84399414 C-122.18835322 156.83526234 -122.18835322 156.83526234 -124.23803711 152.03613281 C-125.1875 150.125 -125.1875 150.125 -126 146.6875 C-127.80864635 139.05415793 -130.94395697 131.72057852 -134.25 124.625 C-136.81886276 118.98806229 -138.45543112 113.06022271 -140.1875 107.125 C-140.579375 105.866875 -140.97125 104.60875 -141.375 103.3125 C-145.68316116 86.41125236 -142.42656263 67.81305357 -135.1875 52.125 C-133.15234375 49.23046875 -133.15234375 49.23046875 -131.1875 47.125 C-130.5275 47.125 -129.8675 47.125 -129.1875 47.125 C-128.94 46.568125 -128.6925 46.01125 -128.4375 45.4375 C-124.78447781 38.67940894 -119.76189172 35.72549895 -113.1875 32.125 C-112.49011719 31.74085937 -111.79273437 31.35671875 -111.07421875 30.9609375 C-103.75239631 27.11661389 -96.51100516 25.13334985 -88.375 23.75 C-78.95005645 22.1212959 -70.83615337 18.52784591 -62.375 14.15625 C-58.46859825 12.3146606 -54.40344165 10.87070009 -50.36328125 9.3515625 C-47.67305133 8.31253151 -45.0573599 7.20210734 -42.4375 6 C-28.63772633 -0.16373254 -14.97615351 -0.05716447 0 0 Z " fill="#E4DDCD" transform="translate(222.1875,3.875)"/>
<path d="M0 0 C2.56829389 0.61256804 5.14226382 1.17910151 7.72265625 1.73779297 C23.18078792 5.31816905 41.04549842 13.05005161 49.84765625 26.67919922 C50.59015625 27.33919922 51.33265625 27.99919922 52.09765625 28.67919922 C54.47621461 31.39755163 54.07206675 33.16343479 53.84765625 36.67919922 C54.17765625 37.66919922 54.50765625 38.65919922 54.84765625 39.67919922 C54.87484055 41.36021307 54.83805279 43.04266814 54.76171875 44.72216797 C54.69597656 46.21006836 54.69597656 46.21006836 54.62890625 47.72802734 C54.57734375 48.76378906 54.52578125 49.79955078 54.47265625 50.86669922 C54.40691406 52.39133789 54.40691406 52.39133789 54.33984375 53.94677734 C54.07832626 59.57303564 53.63579304 65.10212953 52.84765625 70.67919922 C48.40278413 70.67919922 47.91843833 70.28009148 44.59765625 67.67919922 C38.39494132 63.15733782 31.74002509 59.92174827 24.83300781 56.63574219 C22.95529329 55.73105878 21.09983459 54.7919866 19.24609375 53.83935547 C13.58898468 51.02404943 9.48972098 49.23385968 3.17578125 49.72216797 C0.20894072 49.66741084 -2.09805902 48.83381793 -4.90234375 47.86669922 C-28.14592842 40.20068127 -54.38616329 40.86513147 -77.4609375 48.79248047 C-79.82855627 49.57252323 -82.01245903 50.039568 -84.46484375 50.42919922 C-89.85978711 51.50217123 -94.59130062 54.26108618 -99.39379883 56.84814453 C-103.93987009 59.25649651 -107.91256863 60.67919922 -113.15234375 60.67919922 C-113.49675838 56.34838764 -113.76830362 52.01588832 -114.02734375 47.67919922 C-114.1253125 46.45845703 -114.22328125 45.23771484 -114.32421875 43.97998047 C-114.71054752 36.83289815 -114.44708755 32.44723184 -109.66455078 26.93701172 C-108.15234375 25.67919922 -108.15234375 25.67919922 -106.15234375 25.67919922 C-105.92546875 25.12232422 -105.69859375 24.56544922 -105.46484375 23.99169922 C-99.76323266 13.94600348 -85.8651079 6.00048172 -75.15234375 2.67919922 C-74.07726562 2.33373047 -73.0021875 1.98826172 -71.89453125 1.63232422 C-68.65625516 0.61436955 -65.40712109 -0.35721538 -62.15234375 -1.32080078 C-60.32703125 -1.90861328 -60.32703125 -1.90861328 -58.46484375 -2.50830078 C-39.31939912 -7.20435324 -18.84805325 -4.50225272 0 0 Z " fill="#EEEADB" transform="translate(258.15234375,221.32080078125)"/>
<path d="M0 0 C3.67897202 3.77094632 4.89789977 6.46849661 5.25 11.75 C5.11182022 19.32225209 1.06077922 25.61032318 -4 31 C-18.15602119 42.66626872 -33.87344345 46.71943336 -52 45 C-62.16740258 43.25607658 -72.58956895 38.72927839 -79.01171875 30.38671875 C-84.57230873 20.86774268 -86.70026325 9.80105302 -84 -1 C-81.0280615 0.12451727 -78.66559313 1.22293791 -76 3 C-76 3.66 -76 4.32 -76 5 C-75.05125 5.309375 -74.1025 5.61875 -73.125 5.9375 C-70 7 -70 7 -68 8 C-57.54983886 8.75569347 -48.98009014 8.97590085 -40 3 C-28.09214381 -4.06840705 -12.52399843 -8.55162888 0 0 Z " fill="#5B4637" transform="translate(220,410)"/>
<path d="M0 0 C5.41061293 3.49751459 9.94972275 4.03775778 16.2578125 4.05859375 C17.05896484 4.06246094 17.86011719 4.06632812 18.68554688 4.0703125 C24.31136112 3.9604512 28.31087703 3.04747623 32.9765625 -0.28515625 C34.5078125 -1.37890625 34.5078125 -1.37890625 36.5078125 -1.37890625 C36.8378125 -2.36890625 37.1678125 -3.35890625 37.5078125 -4.37890625 C39.5703125 -5.06640625 39.5703125 -5.06640625 41.5078125 -5.37890625 C43.99883504 4.58518391 42.29453046 14.76497005 37.703125 23.83203125 C32.16256632 32.12476288 22.58920115 37.39285329 13.19921875 39.96484375 C-2.93860332 42.8337899 -18.434387 40.18943056 -32.4921875 31.62109375 C-32.8221875 30.96109375 -33.1521875 30.30109375 -33.4921875 29.62109375 C-34.2140625 29.24984375 -34.9359375 28.87859375 -35.6796875 28.49609375 C-41.16382519 24.84000196 -45.16951865 19.10217113 -46.4921875 12.62109375 C-47.1099054 6.51130221 -46.50382972 1.99902629 -43.4921875 -3.37890625 C-32.37378717 -14.8943923 -10.96854558 -7.61249805 0 0 Z " fill="#5B4637" transform="translate(279.4921875,414.37890625)"/>
<path d="M0 0 C1.63001953 0.01353516 1.63001953 0.01353516 3.29296875 0.02734375 C4.12441406 0.03894531 4.95585937 0.05054688 5.8125 0.0625 C9.71600427 7.86950854 8.99210392 17.31987309 8.625 25.8125 C8.58093018 26.83545166 8.53686035 27.85840332 8.49145508 28.91235352 C7.5033355 47.7542857 4.29753234 66.42784835 1.24291992 85.0246582 C-0.358535 94.86711356 -1.57627267 104.74270304 -2.76806641 114.64160156 C-3.60318897 121.45285734 -4.49289971 128.25719753 -5.375 135.0625 C-5.5560302 136.46174605 -5.7370208 137.86099722 -5.91796875 139.26025391 C-6.34069688 142.52772767 -6.76386983 145.79514309 -7.1875 149.0625 C-7.85416667 147.72916667 -8.52083333 146.39583333 -9.1875 145.0625 C-9.54263672 144.4142627 -9.89777344 143.76602539 -10.26367188 143.09814453 C-11.28461617 140.84850565 -11.64980394 138.93894508 -11.96875 136.4921875 C-12.08742432 135.60426514 -12.20609863 134.71634277 -12.32836914 133.80151367 C-12.44688232 132.85638916 -12.56539551 131.91126465 -12.6875 130.9375 C-12.81568115 129.96208252 -12.9438623 128.98666504 -13.07592773 127.98168945 C-13.97470019 121.04596452 -14.78350437 114.09998459 -15.453125 107.13818359 C-15.88990873 102.84966783 -16.67037663 98.7545923 -17.64135742 94.55688477 C-23.23090995 69.02784667 -26.5219082 39.96317057 -17.1875 15.0625 C-16.83042969 13.93457031 -16.47335938 12.80664062 -16.10546875 11.64453125 C-13.54377065 3.75531759 -13.54377065 3.75531759 -9.1875 1.0625 C-5.90230525 -0.03256492 -3.45086585 -0.03710608 0 0 Z " fill="#EFE6D5" transform="translate(203.1875,13.9375)"/>
<path d="M0 0 C2 1 2 1 2.75 3.125 C4.17717632 6.40750553 6.03106649 8.47542863 8.46484375 11.05859375 C12.30543188 15.91552072 13.84176361 21.43742849 15.375 27.3125 C17.19095383 34.16155593 17.19095383 34.16155593 19.2578125 40.9375 C22.53555135 51.06951239 24.3362862 61.26113113 26.05249023 71.76342773 C27.93888724 83.11925867 30.4779356 94.24337137 33.33300781 105.39111328 C33.91104645 107.6520653 34.47129415 109.91622211 35.0234375 112.18359375 C37.47856166 121.9306465 40.73318947 131.36956531 44.19335938 140.79833984 C44.85592946 142.60677114 45.50076439 144.42169069 46.140625 146.23828125 C50.41781418 157.52176166 57.32480236 167.98720355 64 178 C63.195625 178.969375 62.39125 179.93875 61.5625 180.9375 C58.54273168 185.10034446 58.12583172 188.95529215 58 194 C56.90526392 193.16049733 55.8248352 192.30233588 54.75 191.4375 C54.14671875 190.96183594 53.5434375 190.48617187 52.921875 189.99609375 C50.34470625 187.31940019 48.71963965 184.25824269 47 181 C46.5045166 180.08190552 46.5045166 180.08190552 45.99902344 179.14526367 C39.94026812 167.79324095 36.07061161 156.48715389 33 144 C31.73076259 139.22305192 30.5094202 134.71883905 28 130.4375 C25.48922345 125.74053399 24.91005262 120.62189936 24.07421875 115.43164062 C22.5176682 105.77933532 19.80678559 96.75967529 16.0625 87.7421875 C14.1718124 83.14840746 12.53268098 78.57875594 11.125 73.8125 C9.25081867 67.52804278 6.88734852 61.55358737 4.3671875 55.5078125 C3.01650127 52.04233754 2.00905286 48.57717509 1 45 C0.64679688 44.14019531 0.29359375 43.28039062 -0.0703125 42.39453125 C-5.39510043 29.35866155 -4.40245927 13.20737781 0 0 Z " fill="#FBF9ED" transform="translate(85,69)"/>
<path d="M0 0 C3.13642528 0.15501278 4.35005679 0.40491406 7.0625 2.125 C9.02966622 5.37510071 9.39583587 6.76735053 8.5 10.5 C2.93532261 16.45004286 -6.27326699 21.38770184 -14.0625 23.4375 C-20.15698486 25.32124987 -25.94839105 29.17258657 -29.5 34.5 C-26.84361403 36.18352773 -24.17483289 37.8459514 -21.5 39.5 C-20.91476563 39.86867188 -20.32953125 40.23734375 -19.7265625 40.6171875 C-16.73384702 42.42967716 -13.9164928 43.74634306 -10.5625 44.75 C-5.13503528 46.42792087 -0.20743371 49.04052143 4.82788086 51.63183594 C8.33418273 53.43441661 11.80019051 55.11615653 15.5 56.5 C15.97916667 63.6875 15.97916667 63.6875 14.0625 66.9375 C10.27129927 69.24920776 6.92829742 69.94985879 2.5 69.5 C-0.74415892 68.16705253 -3.60813624 66.47576508 -6.5 64.5 C-6.5 63.84 -6.5 63.18 -6.5 62.5 C-7.73363281 62.12101562 -7.73363281 62.12101562 -8.9921875 61.734375 C-13.01197479 60.31983961 -16.78450818 58.58656845 -20.625 56.75 C-21.37346191 56.39583008 -22.12192383 56.04166016 -22.89306641 55.67675781 C-27.25713491 53.60272654 -31.57573874 51.45590368 -35.875 49.25 C-41.26230523 46.51903918 -46.77689882 44.41521102 -52.5 42.5 C-53.5031614 37.484193 -53.72940433 34.16148178 -51.5 29.5 C-43.43976199 19.42470248 -28.36627365 14.26889595 -16.9453125 8.796875 C-15.36363281 8.03117187 -15.36363281 8.03117187 -13.75 7.25 C-12.82703125 6.81171875 -11.9040625 6.3734375 -10.953125 5.921875 C-8.39952127 4.59401323 -8.39952127 4.59401323 -6.453125 2.359375 C-4.13654731 0.15399304 -3.14584589 -0.04309378 0 0 Z " fill="#5B4637" transform="translate(115.5,317.5)"/>
<path d="M0 0 C1.53239676 0.70606636 3.06494677 1.41180024 4.59765625 2.1171875 C5.33250244 2.46048096 6.06734863 2.80377441 6.82446289 3.1574707 C8.7390991 4.03415508 10.68093799 4.85081688 12.625 5.66015625 C15.90986671 7.11278009 18.84535619 8.76332293 21.875 10.6875 C22.83277344 11.28691406 23.79054688 11.88632812 24.77734375 12.50390625 C25.49019531 13.03886719 26.20304687 13.57382812 26.9375 14.125 C26.9375 14.785 26.9375 15.445 26.9375 16.125 C27.72125 16.393125 28.505 16.66125 29.3125 16.9375 C31.9375 18.125 31.9375 18.125 33.9375 21.125 C33.8828125 24.0625 33.8828125 24.0625 32.9375 27.125 C30.6796875 29.25 30.6796875 29.25 27.8125 31.125 C23.82351175 33.82738453 20.12526126 36.55293539 16.5703125 39.80078125 C14.9375 41.125 14.9375 41.125 12.515625 42.546875 C9.87322319 44.1643452 7.81572362 45.94349367 5.5625 48.0625 C1.84621472 51.43422903 -1.65772019 53.7594701 -6.0625 56.125 C-7.23607264 57.03280843 -8.40266263 57.94970752 -9.5625 58.875 C-12.31696219 60.88955022 -13.26398362 61.15142408 -16.875 61.625 C-17.926875 61.46 -18.97875 61.295 -20.0625 61.125 C-22.43608694 57.56461959 -22.80209381 56.31603161 -22.0625 52.125 C-18.80491587 48.33668587 -14.48435274 45.39909569 -10.0625 43.125 C-9.4025 43.125 -8.7425 43.125 -8.0625 43.125 C-8.0625 42.465 -8.0625 41.805 -8.0625 41.125 C-6.41796875 39.87109375 -6.41796875 39.87109375 -4.25 38.5625 C-3.54230469 38.12808594 -2.83460938 37.69367188 -2.10546875 37.24609375 C-0.0625 36.125 -0.0625 36.125 2.9375 35.125 C3.370625 34.196875 3.370625 34.196875 3.8125 33.25 C5.3271578 30.3889797 7.07462134 29.55643933 9.9375 28.125 C12.25 27.4375 12.25 27.4375 13.9375 27.125 C13.98260361 24.74602997 13.98260361 24.74602997 12.9375 22.125 C6.35638343 17.66215204 -1.0978653 15.61378215 -8.61328125 13.21289062 C-14.57969012 11.23060406 -19.16141988 9.08303521 -24.0625 5.125 C-23.9375 1.8125 -23.9375 1.8125 -23.0625 -1.875 C-15.71742237 -7.60774352 -7.41935613 -3.51145099 0 0 Z " fill="#5B4637" transform="translate(347.0625,321.875)"/>
<path d="M0 0 C-2.82288014 1.52396946 -5.4611707 2.40560818 -8.5625 3.1875 C-12.13350112 4.37199874 -12.7797304 4.63541583 -14.8125 8 C-15.22719709 9.32758733 -15.62081316 10.6618374 -16 12 C-16.66234748 13.73082571 -17.32938656 15.45986016 -18 17.1875 C-21.84328949 28.06840047 -23.52782298 37.93865909 -23.4375 49.5 C-23.43545563 50.16386719 -23.43341125 50.82773437 -23.43130493 51.51171875 C-23.34759906 68.40371438 -20.9949517 84.99947937 -17.4375 101.5 C-15.97555359 108.30938678 -15.31066768 115.13583784 -14.625 122.0625 C-12.66190848 141.6987137 -9.31140369 161.0837649 -5.24731445 180.38769531 C-3.84943806 187.23868094 -3.23162081 194.00505142 -3 201 C-12.87737382 186.18393928 -15.4510809 164.43701413 -19.26123047 147.27148438 C-20.46056508 141.9604851 -21.80884303 136.69170017 -23.17578125 131.421875 C-25.291519 122.63805383 -26.56594438 113.9226191 -27.5 104.9375 C-28.43778006 95.71056714 -28.43778006 95.71056714 -29.63671875 86.515625 C-33.12353948 62.28098446 -34.93767538 28.89449241 -21.34375 7.35546875 C-19.66731468 5.66441335 -18.31751669 5.37806946 -16 5 C-16 4.34 -16 3.68 -16 3 C-10.4477112 0.1647887 -6.19887485 -0.37952295 0 0 Z " fill="#B9A989" transform="translate(205,12)"/>
<path d="M0 0 C0.66 0 1.32 0 2 0 C1.76216797 0.76957031 1.76216797 0.76957031 1.51953125 1.5546875 C0.6631864 4.36501258 -0.16717408 7.18260598 -1 10 C-1.18983963 10.62795471 -1.37967926 11.25590942 -1.57527161 11.90289307 C-4.92225337 23.02873486 -7.17703639 33.90274797 -8.5 45.4375 C-8.59783783 46.25915649 -8.69567566 47.08081299 -8.79647827 47.92736816 C-14.66426829 97.36691733 -19.40365153 147.3036516 -14 197 C-16.20246732 193.69629903 -16.45542469 191.96251829 -16.9296875 188.0703125 C-17.0834082 186.8234668 -17.23712891 185.57662109 -17.39550781 184.29199219 C-17.55638444 182.90311554 -17.71617799 181.5141131 -17.875 180.125 C-17.95826538 179.41138306 -18.04153076 178.69776611 -18.12731934 177.96252441 C-18.78413806 172.31177366 -19.39853085 166.65688227 -20 161 C-20.14109192 159.68231628 -20.14109192 159.68231628 -20.28503418 158.3380127 C-27.35128061 91.94043662 -27.35128061 91.94043662 -21.36279297 60.10058594 C-21.01204702 58.06975274 -20.76697723 56.05843384 -20.56640625 54.0078125 C-19.21068179 40.56238023 -14.30475772 28.72354813 -8.9375 16.4375 C-8.46352783 15.34924927 -8.46352783 15.34924927 -7.97998047 14.23901367 C-5.76122082 9.30622536 -3.37186307 4.25900718 0 0 Z " fill="#CCBE9E" transform="translate(255,17)"/>
<path d="M0 0 C0.66 0 1.32 0 2 0 C0.87548273 2.9719385 -0.22293791 5.33440687 -2 8 C-2.91955603 10.82491198 -2.91955603 10.82491198 -2 14 C0.08152006 16.00764566 2.26825574 17.63770742 4.640625 19.2890625 C12.13437553 24.72327232 15.59395296 31.65936005 17.16186523 40.71142578 C17.65200311 43.84760042 18.10779605 46.98839956 18.5625 50.12988281 C19.43513365 55.85459329 20.47815902 61.55038972 21.5 67.25 C21.71841553 68.47831543 21.93683105 69.70663086 22.16186523 70.97216797 C23.18543316 76.6792643 24.25094557 82.35243228 25.5625 88 C26.7935503 93.4411063 27.54610413 98.89154163 28.27490234 104.41674805 C33.22198659 142.68245972 33.22198659 142.68245972 47.1796875 178.21484375 C47.45039063 178.80394531 47.72109375 179.39304688 48 180 C47.67 180.66 47.34 181.32 47 182 C40.68783769 172.47258001 36.80400005 162.34075446 32.95751953 151.63916016 C32.30886614 149.85131133 31.64258382 148.0697778 30.96044922 146.29443359 C28.51463903 139.85742776 26.84941461 133.49592561 25.5 126.75 C24.18117361 120.39151725 22.82000226 114.11291098 21 107.875 C19.01712897 100.76971216 17.91623792 93.59112096 16.75 86.3125 C11.43073896 51.53555823 11.43073896 51.53555823 -6 22 C-7.01732618 14.31090675 -6.11096925 8.52918645 -2 2 C-1.34 1.34 -0.68 0.68 0 0 Z " fill="#AD9B7B" transform="translate(93,52)"/>
<path d="M0 0 C0.6776944 0.00254791 1.35538879 0.00509583 2.05361938 0.00772095 C6.64017294 0.02783771 11.22619453 0.07203316 15.8125 0.125 C16.74320313 0.13225098 17.67390625 0.13950195 18.6328125 0.14697266 C38.21102106 0.37910978 57.55311475 4.67294404 76.5 9.3125 C77.52762451 9.56217529 78.55524902 9.81185059 79.61401367 10.0690918 C80.54963135 10.30797119 81.48524902 10.54685059 82.44921875 10.79296875 C83.68224731 11.10657349 83.68224731 11.10657349 84.94018555 11.42651367 C86.8125 12.125 86.8125 12.125 87.8125 14.125 C77.76157818 13.57540305 68.11809694 11.42808387 58.31884766 9.28710938 C39.69998874 5.24046721 21.55348924 2.61472728 2.4609375 2.78881836 C-0.3466391 2.8127915 -3.15328166 2.80929432 -5.9609375 2.80273438 C-17.8682994 2.81944844 -28.89619953 3.08116688 -39.8125 8.3125 C-41.18406891 8.94061094 -42.5564961 9.5668504 -43.9296875 10.19140625 C-44.62674805 10.51125488 -45.32380859 10.83110352 -46.04199219 11.16064453 C-50.35652416 13.09992552 -54.74516696 14.86261548 -59.12939453 16.63720703 C-62.13563534 17.85688188 -65.10825148 19.08786579 -68.046875 20.46484375 C-74.97374208 23.67210617 -81.95669126 25.24546553 -89.375 26.875 C-101.54673663 29.58955997 -114.56919068 33.52980423 -123.1875 43.125 C-121.5375 43.125 -119.8875 43.125 -118.1875 43.125 C-120.99341374 45.93091374 -123.89966935 47.77948446 -127.75 48.8125 C-131.5719186 50.87045617 -132.8003581 54.11770118 -134.1875 58.125 C-134.6624837 60.78863407 -134.90875316 63.43044721 -135.1875 66.125 C-136.1775 67.115 -136.1775 67.115 -137.1875 68.125 C-142.0506165 81.0332722 -140.27173454 97.74841446 -135.1875 110.125 C-134.90519531 111.15496094 -134.62289062 112.18492188 -134.33203125 113.24609375 C-132.61947886 119.45283448 -129.97095331 125.36743148 -127.55273438 131.32421875 C-125.25773389 137.07508519 -123.34281566 142.77136685 -121.82983398 148.77783203 C-120.93686217 152.04086169 -119.55974867 155.0374405 -118.1875 158.125 C-114.90880956 166.88525101 -112.59602111 175.92695518 -111.3125 185.1875 C-110.49023253 190.480415 -108.74457671 194.76518419 -106.4140625 199.5625 C-103.78041238 205.06464803 -102.27255144 210.71191824 -100.9128418 216.64526367 C-97.52337541 231.20760898 -91.66993365 247.9934409 -80.1875 258.125 C-80.07792969 257.42632812 -79.96835938 256.72765625 -79.85546875 256.0078125 C-79.69691406 255.09773437 -79.53835937 254.18765625 -79.375 253.25 C-79.22417969 252.34507812 -79.07335937 251.44015625 -78.91796875 250.5078125 C-78.1875 248.125 -78.1875 248.125 -75.1875 246.125 C-75.51347168 246.81811279 -75.83944336 247.51122559 -76.17529297 248.2253418 C-77.3224193 251.51150182 -77.41574559 254.04508992 -77.3828125 257.51953125 C-77.37636719 258.72158203 -77.36992187 259.92363281 -77.36328125 261.16210938 C-77.34652344 262.40798828 -77.32976562 263.65386719 -77.3125 264.9375 C-77.30347656 266.20271484 -77.29445313 267.46792969 -77.28515625 268.77148438 C-77.26162394 271.88951564 -77.22874545 275.00716097 -77.1875 278.125 C-75.8675 277.795 -74.5475 277.465 -73.1875 277.125 C-74.5625 278.625 -74.5625 278.625 -76.1875 280.125 C-76.8475 280.125 -77.5075 280.125 -78.1875 280.125 C-79.14369733 276.12704108 -79.2914592 272.41696078 -79.25 268.3125 C-79.24097656 267.15105469 -79.23195312 265.98960937 -79.22265625 264.79296875 C-79.21105469 263.91253906 -79.19945312 263.03210938 -79.1875 262.125 C-79.7753125 261.86976563 -80.363125 261.61453125 -80.96875 261.3515625 C-87.56680026 257.7040488 -91.17819724 250.74546608 -94.1875 244.125 C-95.22407134 242.05993449 -96.26606713 239.99758591 -97.3125 237.9375 C-100.37198484 231.88986546 -102.51145535 226.15936808 -104.0625 219.5625 C-106.9336274 207.54804017 -106.9336274 207.54804017 -111.73046875 196.22265625 C-113.33505198 192.81130369 -113.88117211 189.91092311 -114.4375 186.1875 C-115.64508962 178.90507592 -117.58850259 171.92868655 -119.75 164.875 C-120.05518555 163.87476807 -120.36037109 162.87453613 -120.67480469 161.84399414 C-122.18835322 156.83526234 -122.18835322 156.83526234 -124.23803711 152.03613281 C-125.1875 150.125 -125.1875 150.125 -126 146.6875 C-127.80864635 139.05415793 -130.94395697 131.72057852 -134.25 124.625 C-136.81886276 118.98806229 -138.45543112 113.06022271 -140.1875 107.125 C-140.579375 105.866875 -140.97125 104.60875 -141.375 103.3125 C-145.68316116 86.41125236 -142.42656263 67.81305357 -135.1875 52.125 C-133.15234375 49.23046875 -133.15234375 49.23046875 -131.1875 47.125 C-130.5275 47.125 -129.8675 47.125 -129.1875 47.125 C-128.94 46.568125 -128.6925 46.01125 -128.4375 45.4375 C-124.78447781 38.67940894 -119.76189172 35.72549895 -113.1875 32.125 C-112.49011719 31.74085937 -111.79273437 31.35671875 -111.07421875 30.9609375 C-103.75239631 27.11661389 -96.51100516 25.13334985 -88.375 23.75 C-78.95005645 22.1212959 -70.83615337 18.52784591 -62.375 14.15625 C-58.46859825 12.3146606 -54.40344165 10.87070009 -50.36328125 9.3515625 C-47.67305133 8.31253151 -45.0573599 7.20210734 -42.4375 6 C-28.63772633 -0.16373254 -14.97615351 -0.05716447 0 0 Z " fill="#CDC2AF" transform="translate(222.1875,3.875)"/>
<path d="M0 0 C3.88205017 3.50331357 5.39389565 6.76530713 5.9609375 11.96875 C5.95320313 13.2371875 5.94546875 14.505625 5.9375 15.8125 C5.94910156 17.71515625 5.94910156 17.71515625 5.9609375 19.65625 C5.4614685 24.23961259 4.19510409 27.56357806 1.02734375 30.95703125 C-3.9213103 34.74129611 -6.64577352 35.79016423 -12.83203125 35.71875 C-17.24073578 35.0313358 -19.67134681 32.68191 -22.4375 29.3125 C-27.17477737 22.46655648 -28.05700386 16.471249 -27.4375 8.3125 C-26.14233671 4.12226581 -24.66522986 2.21801464 -21 0 C-13.8732234 -3.37584155 -7.18085489 -3.52514695 0 0 Z " fill="#5C4738" transform="translate(196.4375,336.6875)"/>
<path d="M0 0 C3.83851329 2.27177317 5.32614347 4.39453494 6.61328125 8.62109375 C8.15044575 16.11978317 7.63145401 23.76518765 4.45703125 30.7421875 C2.05816495 34.30352963 -0.85424885 35.73231536 -4.9375 36.8125 C-10.20468335 37.44819454 -13.4327605 36.57677196 -17.9375 33.8125 C-22.68007015 29.7095131 -24.6005038 23.76487976 -25.296875 17.6640625 C-25.43580413 12.03743253 -25.28115143 8.50323402 -21.9375 3.8125 C-15.687318 -1.8126638 -7.95416039 -3.00188995 0 0 Z " fill="#5B4637" transform="translate(278.9375,335.1875)"/>
<path d="M0 0 C2.9375 1 2.9375 1 5 2 C5 2.33 5 2.66 5 3 C4.09507812 3.09087891 4.09507812 3.09087891 3.171875 3.18359375 C1.97304687 3.30927734 1.97304687 3.30927734 0.75 3.4375 C-0.03890625 3.51871094 -0.8278125 3.59992187 -1.640625 3.68359375 C-3.82364639 3.97634993 -5.8773182 4.42064419 -8 5 C-8.57743001 8.7945401 -8.64784508 10.93672884 -6.6171875 14.26953125 C-5.36686735 15.94474375 -4.11549345 17.61917008 -2.86328125 19.29296875 C0.27758039 23.85610735 2.02462126 28.85346429 4 34 C4.57014987 35.33247755 5.14461912 36.6631125 5.72265625 37.9921875 C15.00584467 59.80483269 16.85294149 83.85124513 17.83370972 107.32415771 C18.41641849 120.94354047 19.20587367 134.40248424 21.61767578 147.84179688 C22.00550247 150.03106121 22.34768713 152.22409991 22.68359375 154.421875 C23.87117141 161.82627376 25.60303867 168.29083793 29.109375 174.9609375 C29.40328125 175.63382813 29.6971875 176.30671875 30 177 C29.67 177.66 29.34 178.32 29 179 C24.33252489 172.30390497 21.85631258 165.4934065 19.375 157.75 C18.9934375 156.59886719 18.611875 155.44773438 18.21875 154.26171875 C14.5649554 143.08614699 11.7669 132.27907978 10.6875 120.5625 C10.44189724 118.12612066 10.19431223 115.68994076 9.9453125 113.25390625 C9.87637283 112.57131744 9.80743317 111.88872864 9.73640442 111.18545532 C8.70052221 100.95946585 7.58414009 90.74220273 6.45108032 80.52658081 C6.19541401 78.206268 5.94318239 75.88557373 5.69467163 73.56448364 C4.48505892 62.27180703 3.19548442 51.03043883 1.03125 39.875 C0.88224747 39.08810791 0.73324493 38.30121582 0.57972717 37.49047852 C-1.10123034 29.35411624 -4.46400432 21.45119456 -9.66015625 14.91015625 C-11.2228996 12.68222186 -11.57465143 11.12698488 -11.875 8.4375 C-11.97554688 7.67308594 -12.07609375 6.90867187 -12.1796875 6.12109375 C-12 4 -12 4 -10.6328125 2.28515625 C-7.14463686 -0.46032171 -4.37092901 -0.22225063 0 0 Z " fill="#AD9A7A" transform="translate(132,35)"/>
<path d="M0 0 C1.75922632 3.51845265 0.19034713 7.38420462 -0.5625 11.125 C-0.74232422 12.01993164 -0.92214844 12.91486328 -1.10742188 13.83691406 C-3.36704511 24.47376925 -6.98129937 34.56116452 -12.08203125 44.1796875 C-13.53303954 47.05700607 -14.64193356 50.05948196 -15.8046875 53.0625 C-16.96499907 55.91398465 -18.23600624 58.70079518 -19.5234375 61.49658203 C-23.47574907 70.1591538 -26.13545026 78.888892 -28.48291016 88.10327148 C-28.94052101 89.78182611 -29.50030712 91.43178801 -30.07421875 93.07421875 C-31.77422787 98.44682142 -32.10222533 104.07842179 -32.73297119 109.65736389 C-32.90011982 111.12375407 -33.06948139 112.58989559 -33.24212646 114.0556488 C-34.96865059 128.73277904 -35.82267493 143.43510421 -36.625 158.1875 C-36.75999104 160.60614358 -36.89540502 163.0247636 -37.03125 165.44335938 C-37.35903034 171.2953109 -37.68163703 177.14752897 -38 183 C-38.33 183 -38.66 183 -39 183 C-39.16631641 145.45598948 -38.48982994 110.32396123 -29.62792969 73.63623047 C-29.01073629 71.04507407 -28.4281201 68.44811957 -27.8515625 65.84765625 C-25.30027991 54.64231943 -21.5670324 44.42781188 -16.85888672 33.95458984 C-15.80922936 31.56585851 -14.89887848 29.13644447 -14 26.6875 C-11.88409627 21.2791362 -8.86507221 16.37032282 -5.90234375 11.39453125 C-3.99120628 7.98430854 -2.5103245 4.59878508 -1 1 C-0.67 0.67 -0.34 0.34 0 0 Z " fill="#BFAF94" transform="translate(319,25)"/>
<path d="M0 0 C0 0.66 0 1.32 0 2 C-1.175625 2.474375 -2.35125 2.94875 -3.5625 3.4375 C-13.79520449 8.58092289 -19.52775289 21.53433236 -23.92700195 31.59570312 C-24.97728821 33.94910906 -26.08352769 36.26463644 -27.21875 38.578125 C-31.0802903 46.46481603 -34.63531035 54.10582699 -36.98046875 62.59765625 C-37.9993208 65.99773338 -39.22319312 69.24629427 -40.51220703 72.55004883 C-48.79168925 93.91286061 -51.82916602 116.30932754 -54 139 C-53.34 139.33 -52.68 139.66 -52 140 C-52.6496875 141.7634375 -52.6496875 141.7634375 -53.3125 143.5625 C-54.77787117 147.83706199 -55.52746109 152.04359539 -56.25 156.5 C-57.5603774 163.53353925 -59.99768275 167.94286284 -65 173 C-65 170 -65 170 -63.10375977 167.29248047 C-60.7864448 163.66577633 -59.97125169 160.49385382 -59.33984375 156.3203125 C-59.21955307 155.58450958 -59.09926239 154.84870667 -58.97532654 154.09060669 C-57.50802994 144.59809735 -56.9828614 135.01329333 -56.41870117 125.43310547 C-55.75408166 114.43106237 -54.27649966 104.57538665 -51 94 C-50.66250732 92.85692383 -50.32501465 91.71384766 -49.97729492 90.53613281 C-35.55731492 42.04856185 -35.55731492 42.04856185 -27.5078125 28.61328125 C-25.88945594 25.94184398 -25.88945594 25.94184398 -24.62109375 22.6484375 C-20.939289 14.36215886 -15.14013074 4.55367163 -6.4375 1.0625 C-4.16495922 0.39710006 -2.35967253 0 0 0 Z " fill="#B1A081" transform="translate(375,70)"/>
<path d="M0 0 C3 4.38461538 3 4.38461538 3 7 C9.78240536 7.88040839 14.87800047 6.49510845 21.0625 3.9375 C27.21298671 1.40071217 31.35421422 0.33855355 38 2 C38 2.66 38 3.32 38 4 C38.5775 4.2475 39.155 4.495 39.75 4.75 C42.3002997 6.16683317 44.01785701 7.87627537 46 10 C45.67 10.99 45.34 11.98 45 13 C42.4375 14.1875 42.4375 14.1875 40 15 C39.443125 14.195625 38.88625 13.39125 38.3125 12.5625 C35.67891472 9.6442028 34.79999226 9.37676579 31 9 C28.70649211 9.40593759 28.70649211 9.40593759 26.453125 10.25 C25.6075 10.5284375 24.761875 10.806875 23.890625 11.09375 C22.14418031 11.69312155 20.39934851 12.29721558 18.65625 12.90625 C12.59631049 14.88950293 8.29204513 15.12085014 2 14 C2 13.34 2 12.68 2 12 C1.2575 11.773125 0.515 11.54625 -0.25 11.3125 C-3.5425747 9.7410439 -4.97497109 8.00004284 -7 5 C-7 4.34 -7 3.68 -7 3 C-2.61538462 0 -2.61538462 0 0 0 Z " fill="#5C4738" transform="translate(164,307)"/>
<path d="M0 0 C3.41158256 1.13719419 4.11854601 2.04342944 6 5 C6 5.66 6 6.32 6 7 C6.928125 7.4640625 6.928125 7.4640625 7.875 7.9375 C9.25 8.625 10.625 9.3125 12 10 C17.68331608 10.59106487 22.14777003 10.27243416 27 7 C29.24850483 4.52338502 29.24850483 4.52338502 31 2 C31.66 1.34 32.32 0.68 33 0 C34 3 34 3 32.8125 6.4375 C30.27027096 11.43429502 27.17755291 14.74889004 22 17 C17.02815841 17.77790719 12.53463567 17.81156391 8.1875 15.0625 C4.32144106 11.86521429 1.87402151 7.61164739 0 3 C0 2.01 0 1.02 0 0 Z " fill="#5C4738" transform="translate(215,385)"/>
<path d="M0 0 C0.33 0 0.66 0 1 0 C0.96907081 11.04172185 -0.99670097 19.02790745 -6 29 C-6.57105469 30.16917969 -7.14210938 31.33835938 -7.73046875 32.54296875 C-9.12860581 35.37577376 -10.55037889 38.19328678 -12 41 C-12.66 41 -13.32 41 -14 41 C-14.20625 41.66 -14.4125 42.32 -14.625 43 C-16.49124252 47.07180186 -18.97561527 50.68796998 -22 54 C-22.66 54 -23.32 54 -24 54 C-22.51686098 49.69411252 -20.29532328 46.42280345 -17.625 42.75 C-14.02766832 37.67705864 -11.28494935 32.76810384 -9 27 C-8.51789063 25.94167969 -8.03578125 24.88335937 -7.5390625 23.79296875 C-4.0083422 15.98232653 -1.59465816 8.42091412 0 0 Z " fill="#C9BEAA" transform="translate(397,103)"/>
<path d="M0 0 C2.9375 1 2.9375 1 5 2 C5 2.33 5 2.66 5 3 C4.09507812 3.09087891 4.09507812 3.09087891 3.171875 3.18359375 C1.97304687 3.30927734 1.97304687 3.30927734 0.75 3.4375 C-0.03890625 3.51871094 -0.8278125 3.59992187 -1.640625 3.68359375 C-3.82364639 3.97634993 -5.8773182 4.42064419 -8 5 C-8.59769754 8.92772671 -8.61298543 10.99283759 -6.51171875 14.4453125 C-5.24836964 16.15593428 -3.97479985 17.85905231 -2.69140625 19.5546875 C-0.52407493 22.68805795 0.27466715 25.29274323 1 29 C0.01 29 -0.98 29 -2 29 C-2.39832031 28.18015625 -2.79664063 27.3603125 -3.20703125 26.515625 C-3.73683594 25.43796875 -4.26664062 24.3603125 -4.8125 23.25 C-5.33457031 22.18265625 -5.85664062 21.1153125 -6.39453125 20.015625 C-7.85875177 17.05569561 -7.85875177 17.05569561 -9.64453125 14.89453125 C-11.23281691 12.67459308 -11.57384567 11.1342001 -11.875 8.4375 C-11.97554688 7.67308594 -12.07609375 6.90867187 -12.1796875 6.12109375 C-12 4 -12 4 -10.6328125 2.28515625 C-7.14463686 -0.46032171 -4.37092901 -0.22225063 0 0 Z " fill="#B2A081" transform="translate(132,35)"/>
<path d="M0 0 C6.92721592 0.45070995 12.57739303 3.22171799 18.8125 6.125 C20.35647461 6.81722656 20.35647461 6.81722656 21.93164062 7.5234375 C29.67816087 11.09046264 36.4770062 15.41705531 43.15551758 20.70751953 C44.89760924 22.19128747 44.89760924 22.19128747 47 22 C47.66 17.71 48.32 13.42 49 9 C49.33 9 49.66 9 50 9 C50.09688221 14.44693314 50.12862175 19.63904667 49 25 C43.12894937 23.85131618 39.21848375 21.29577952 34.4296875 17.75390625 C30.2670602 14.7490515 26.34642628 12.74350041 21.515625 11.01953125 C16.96555688 9.1754819 12.6352978 6.85933129 8.26953125 4.62109375 C5.54388839 3.26966987 2.84270409 2.07605183 0 1 C0 0.67 0 0.34 0 0 Z " fill="#CDC2AF" transform="translate(263,270)"/>
<path d="M0 0 C2.5625 0.375 2.5625 0.375 4.4375 2.0625 C5.85114911 4.96833428 5.54420152 6.34808697 4.5625 9.375 C3.5625 10.375 3.5625 10.375 0.6875 10.625 C-2.4375 10.375 -2.4375 10.375 -4.375 9.1875 C-5.4375 7.375 -5.4375 7.375 -5.25 4.8125 C-4.18139434 1.60668302 -3.39220485 0.52187767 0 0 Z " fill="#F4F3F1" transform="translate(185.4375,346.625)"/>
<path d="M0 0 C2.5625 0.3125 2.5625 0.3125 4.4375 1.5 C5.5625 3.3125 5.5625 3.3125 5.375 5.875 C4.5625 8.3125 4.5625 8.3125 2.5625 10.3125 C0.125 10.6875 0.125 10.6875 -2.4375 10.3125 C-4.3125 8.5625 -4.3125 8.5625 -5.4375 6.3125 C-5.10894324 2.58885677 -3.89540945 0.49941147 0 0 Z " fill="#F7F6F5" transform="translate(268.4375,347.6875)"/>
<path d="M0 0 C0.33 0 0.66 0 1 0 C1.33 2.64 1.66 5.28 2 8 C2.99 8 3.98 8 5 8 C4.566875 9.175625 4.13375 10.35125 3.6875 11.5625 C2.22212883 15.83706199 1.47253891 20.04359539 0.75 24.5 C-0.5603774 31.53353925 -2.99768275 35.94286284 -8 41 C-8 38 -8 38 -6.10546875 35.30859375 C-3.74999379 31.6071331 -2.95268258 28.31880939 -2.3125 24.0625 C-2.19221436 23.32974854 -2.07192871 22.59699707 -1.94799805 21.84204102 C-0.81721147 14.59051167 -0.30937755 7.32904749 0 0 Z " fill="#BCAD92" transform="translate(318,202)"/>
<path d="M0 0 C0.33 0.99 0.66 1.98 1 3 C1.66 3 2.32 3 3 3 C2.34 16.2 1.68 29.4 1 43 C0.67 43 0.34 43 0 43 C0 28.81 0 14.62 0 0 Z " fill="#D0C5AF" transform="translate(280,165)"/>
</svg>
